<svg xmlns="http://www.w3.org/2000/svg" xmlns:xlink="http://www.w3.org/1999/xlink" width="1180" zoomAndPan="magnify" viewBox="0 0 884.88 157.5" height="210" preserveAspectRatio="xMidYMid meet" version="1.0"><defs><g/></defs><g fill="#ffffff" fill-opacity="1"><g transform="translate(132.667741, 66.019629)"><g><path d="M 64.609375 0 L 48.25 0 L 44.640625 -6.296875 L 20.375 -6.296875 L 16.75 0 L 0.40625 0 L 25.015625 -38.4375 L 40 -38.4375 Z M 39.203125 -15.8125 L 32.515625 -27.484375 L 25.8125 -15.8125 Z M 39.203125 -15.8125 "/></g></g></g><g fill="#ffffff" fill-opacity="1"><g transform="translate(189.634452, 66.019629)"><g><path d="M 32.8125 0 L 16.671875 0 L 16.671875 -28.953125 L 1.609375 -28.953125 L 1.609375 -38.46875 L 47.875 -38.46875 L 47.875 -28.953125 L 32.8125 -28.953125 Z M 32.8125 0 "/></g></g></g><g fill="#ffffff" fill-opacity="1"><g transform="translate(239.122959, 66.019629)"><g><path d="M 56.84375 0 L 40.703125 0 L 40.703125 -15.515625 L 20.421875 -15.515625 L 20.421875 0 L 4.296875 0 L 4.296875 -38.46875 L 20.421875 -38.46875 L 20.421875 -22.921875 L 40.703125 -22.921875 L 40.703125 -38.46875 L 56.84375 -38.46875 Z M 56.84375 0 "/></g></g></g><g fill="#ffffff" fill-opacity="1"><g transform="translate(300.246358, 66.019629)"><g><path d="M 50.609375 0 L 4.296875 0 L 4.296875 -38.46875 L 48.5 -38.46875 L 48.5 -28.953125 L 20.421875 -28.953125 L 20.421875 -22.921875 L 44.15625 -22.921875 L 44.15625 -15.515625 L 20.421875 -15.515625 L 20.421875 -9.515625 L 50.609375 -9.515625 Z M 50.609375 0 "/></g></g></g><g fill="#ffffff" fill-opacity="1"><g transform="translate(353.005502, 66.019629)"><g><path d="M 61.375 0 L 42.171875 0 L 20.421875 -26.03125 L 20.421875 0 L 4.296875 0 L 4.296875 -38.46875 L 23.484375 -38.46875 L 45.234375 -12.578125 L 45.234375 -38.46875 L 61.375 -38.46875 Z M 61.375 0 "/></g></g></g><g fill="#ffffff" fill-opacity="1"><g transform="translate(418.659539, 66.019629)"><g><path d="M 25.421875 0.828125 C 20.210938 0.828125 16.015625 0.269531 12.828125 -0.84375 C 9.648438 -1.957031 7.226562 -3.492188 5.5625 -5.453125 C 3.90625 -7.410156 2.789062 -9.664062 2.21875 -12.21875 L 19.359375 -12.21875 C 20.628906 -10.394531 22.648438 -9.484375 25.421875 -9.484375 C 28.191406 -9.484375 30.207031 -10.394531 31.46875 -12.21875 C 31.582031 -12.40625 31.640625 -12.566406 31.640625 -12.703125 C 31.640625 -13.191406 31 -13.554688 29.71875 -13.796875 C 28.4375 -14.035156 26.53125 -14.21875 24 -14.34375 C 20.800781 -14.488281 17.441406 -14.828125 13.921875 -15.359375 C 6.066406 -16.578125 2.140625 -19.734375 2.140625 -24.828125 C 2.140625 -25.253906 2.164062 -25.707031 2.21875 -26.1875 C 2.789062 -28.75 3.90625 -31.003906 5.5625 -32.953125 C 7.226562 -34.910156 9.648438 -36.445312 12.828125 -37.5625 C 16.015625 -38.6875 20.210938 -39.25 25.421875 -39.25 C 30.617188 -39.25 34.804688 -38.6875 37.984375 -37.5625 C 41.171875 -36.445312 43.59375 -34.910156 45.25 -32.953125 C 46.914062 -31.003906 48.035156 -28.75 48.609375 -26.1875 L 31.46875 -26.1875 C 30.207031 -28.007812 28.191406 -28.921875 25.421875 -28.921875 C 22.648438 -28.921875 20.628906 -28.007812 19.359375 -26.1875 C 19.265625 -26.050781 19.21875 -25.921875 19.21875 -25.796875 C 19.21875 -25.359375 19.828125 -25.035156 21.046875 -24.828125 C 22.273438 -24.628906 24.082031 -24.457031 26.46875 -24.3125 C 28.851562 -24.175781 31.394531 -23.945312 34.09375 -23.625 C 36.800781 -23.300781 39.328125 -22.738281 41.671875 -21.9375 C 44.023438 -21.144531 45.863281 -19.972656 47.1875 -18.421875 C 48.21875 -17.222656 48.734375 -15.703125 48.734375 -13.859375 C 48.734375 -13.335938 48.691406 -12.789062 48.609375 -12.21875 C 48.035156 -9.664062 46.914062 -7.410156 45.25 -5.453125 C 43.59375 -3.492188 41.171875 -1.957031 37.984375 -0.84375 C 34.804688 0.269531 30.617188 0.828125 25.421875 0.828125 Z M 25.421875 0.828125 "/></g></g></g><g fill="#ffffff" fill-opacity="1"><g transform="translate(469.542088, 66.019629)"><g/></g></g><g fill="#ffffff" fill-opacity="1"><g transform="translate(483.160809, 66.019629)"><g><path d="M 77.421875 0 L 61.28125 0 L 61.28125 -24.53125 L 46.859375 0 L 34.828125 0 L 20.421875 -24.53125 L 20.421875 0 L 4.296875 0 L 4.296875 -38.46875 L 23.453125 -38.46875 L 40.859375 -10.984375 L 58.234375 -38.46875 L 77.421875 -38.46875 Z M 77.421875 0 "/></g></g></g><g fill="#ffffff" fill-opacity="1"><g transform="translate(564.873142, 66.019629)"><g><path d="M 27.046875 0.828125 C 17.660156 0.828125 11.054688 -1.117188 7.234375 -5.015625 C 4.015625 -8.285156 2.40625 -13.015625 2.40625 -19.203125 L 2.40625 -38.4375 L 18.546875 -38.4375 L 18.546875 -19.203125 C 18.546875 -16.515625 19.003906 -14.394531 19.921875 -12.84375 C 21.222656 -10.601562 23.597656 -9.484375 27.046875 -9.484375 C 30.535156 -9.484375 32.921875 -10.601562 34.203125 -12.84375 C 35.117188 -14.445312 35.578125 -16.566406 35.578125 -19.203125 L 35.578125 -38.4375 L 51.71875 -38.4375 L 51.71875 -18.984375 C 51.71875 -12.941406 50.117188 -8.285156 46.921875 -5.015625 C 43.078125 -1.117188 36.453125 0.828125 27.046875 0.828125 Z M 27.046875 0.828125 "/></g></g></g><g fill="#ffffff" fill-opacity="1"><g transform="translate(618.999543, 66.019629)"><g><path d="M 25.421875 0.828125 C 20.210938 0.828125 16.015625 0.269531 12.828125 -0.84375 C 9.648438 -1.957031 7.226562 -3.492188 5.5625 -5.453125 C 3.90625 -7.410156 2.789062 -9.664062 2.21875 -12.21875 L 19.359375 -12.21875 C 20.628906 -10.394531 22.648438 -9.484375 25.421875 -9.484375 C 28.191406 -9.484375 30.207031 -10.394531 31.46875 -12.21875 C 31.582031 -12.40625 31.640625 -12.566406 31.640625 -12.703125 C 31.640625 -13.191406 31 -13.554688 29.71875 -13.796875 C 28.4375 -14.035156 26.53125 -14.21875 24 -14.34375 C 20.800781 -14.488281 17.441406 -14.828125 13.921875 -15.359375 C 6.066406 -16.578125 2.140625 -19.734375 2.140625 -24.828125 C 2.140625 -25.253906 2.164062 -25.707031 2.21875 -26.1875 C 2.789062 -28.75 3.90625 -31.003906 5.5625 -32.953125 C 7.226562 -34.910156 9.648438 -36.445312 12.828125 -37.5625 C 16.015625 -38.6875 20.210938 -39.25 25.421875 -39.25 C 30.617188 -39.25 34.804688 -38.6875 37.984375 -37.5625 C 41.171875 -36.445312 43.59375 -34.910156 45.25 -32.953125 C 46.914062 -31.003906 48.035156 -28.75 48.609375 -26.1875 L 31.46875 -26.1875 C 30.207031 -28.007812 28.191406 -28.921875 25.421875 -28.921875 C 22.648438 -28.921875 20.628906 -28.007812 19.359375 -26.1875 C 19.265625 -26.050781 19.21875 -25.921875 19.21875 -25.796875 C 19.21875 -25.359375 19.828125 -25.035156 21.046875 -24.828125 C 22.273438 -24.628906 24.082031 -24.457031 26.46875 -24.3125 C 28.851562 -24.175781 31.394531 -23.945312 34.09375 -23.625 C 36.800781 -23.300781 39.328125 -22.738281 41.671875 -21.9375 C 44.023438 -21.144531 45.863281 -19.972656 47.1875 -18.421875 C 48.21875 -17.222656 48.734375 -15.703125 48.734375 -13.859375 C 48.734375 -13.335938 48.691406 -12.789062 48.609375 -12.21875 C 48.035156 -9.664062 46.914062 -7.410156 45.25 -5.453125 C 43.59375 -3.492188 41.171875 -1.957031 37.984375 -0.84375 C 34.804688 0.269531 30.617188 0.828125 25.421875 0.828125 Z M 25.421875 0.828125 "/></g></g></g><g fill="#ffffff" fill-opacity="1"><g transform="translate(669.882046, 66.019629)"><g><path d="M 20.421875 0 L 4.296875 0 L 4.296875 -38.46875 L 20.421875 -38.46875 Z M 20.421875 0 "/></g></g></g><g fill="#ffffff" fill-opacity="1"><g transform="translate(694.599536, 66.019629)"><g><path d="M 29.09375 0.828125 C 19.582031 0.828125 12.582031 -1.128906 8.09375 -5.046875 C 4.125 -8.492188 2.140625 -13.210938 2.140625 -19.203125 C 2.140625 -25.179688 4.125 -29.90625 8.09375 -33.375 C 12.582031 -37.269531 19.582031 -39.21875 29.09375 -39.21875 C 34.664062 -39.21875 39.273438 -38.578125 42.921875 -37.296875 C 46.566406 -36.023438 49.398438 -34.28125 51.421875 -32.0625 C 53.441406 -29.84375 54.78125 -27.304688 55.4375 -24.453125 L 38.46875 -24.453125 C 36.769531 -27.429688 33.644531 -28.921875 29.09375 -28.921875 C 25.195312 -28.921875 22.328125 -27.796875 20.484375 -25.546875 C 19.015625 -23.765625 18.28125 -21.648438 18.28125 -19.203125 C 18.28125 -16.742188 19.015625 -14.625 20.484375 -12.84375 C 22.328125 -10.59375 25.195312 -9.46875 29.09375 -9.46875 C 33.644531 -9.46875 36.769531 -10.96875 38.46875 -13.96875 L 55.4375 -13.96875 C 54.78125 -11.09375 53.441406 -8.546875 51.421875 -6.328125 C 49.398438 -4.109375 46.566406 -2.359375 42.921875 -1.078125 C 39.273438 0.191406 34.664062 0.828125 29.09375 0.828125 Z M 29.09375 0.828125 "/></g></g></g><g fill="#ffffff" fill-opacity="1"><g transform="translate(1.470959, 126.57738)"><g><path d="M 32.8125 0 L 16.671875 0 L 16.671875 -28.953125 L 1.609375 -28.953125 L 1.609375 -38.46875 L 47.875 -38.46875 L 47.875 -28.953125 L 32.8125 -28.953125 Z M 32.8125 0 "/></g></g></g><g fill="#ffffff" fill-opacity="1"><g transform="translate(50.959466, 126.57738)"><g><path d="M 50.609375 0 L 4.296875 0 L 4.296875 -38.46875 L 48.5 -38.46875 L 48.5 -28.953125 L 20.421875 -28.953125 L 20.421875 -22.921875 L 44.15625 -22.921875 L 44.15625 -15.515625 L 20.421875 -15.515625 L 20.421875 -9.515625 L 50.609375 -9.515625 Z M 50.609375 0 "/></g></g></g><g fill="#ffffff" fill-opacity="1"><g transform="translate(101.573564, 126.57738)"><g><path d="M 29.09375 0.828125 C 19.582031 0.828125 12.582031 -1.128906 8.09375 -5.046875 C 4.125 -8.492188 2.140625 -13.210938 2.140625 -19.203125 C 2.140625 -25.179688 4.125 -29.90625 8.09375 -33.375 C 12.582031 -37.269531 19.582031 -39.21875 29.09375 -39.21875 C 34.664062 -39.21875 39.273438 -38.578125 42.921875 -37.296875 C 46.566406 -36.023438 49.398438 -34.28125 51.421875 -32.0625 C 53.441406 -29.84375 54.78125 -27.304688 55.4375 -24.453125 L 38.46875 -24.453125 C 36.769531 -27.429688 33.644531 -28.921875 29.09375 -28.921875 C 25.195312 -28.921875 22.328125 -27.796875 20.484375 -25.546875 C 19.015625 -23.765625 18.28125 -21.648438 18.28125 -19.203125 C 18.28125 -16.742188 19.015625 -14.625 20.484375 -12.84375 C 22.328125 -10.59375 25.195312 -9.46875 29.09375 -9.46875 C 33.644531 -9.46875 36.769531 -10.96875 38.46875 -13.96875 L 55.4375 -13.96875 C 54.78125 -11.09375 53.441406 -8.546875 51.421875 -6.328125 C 49.398438 -4.109375 46.566406 -2.359375 42.921875 -1.078125 C 39.273438 0.191406 34.664062 0.828125 29.09375 0.828125 Z M 29.09375 0.828125 "/></g></g></g><g fill="#ffffff" fill-opacity="1"><g transform="translate(159.15824, 126.57738)"><g><path d="M 56.84375 0 L 40.703125 0 L 40.703125 -15.515625 L 20.421875 -15.515625 L 20.421875 0 L 4.296875 0 L 4.296875 -38.46875 L 20.421875 -38.46875 L 20.421875 -22.921875 L 40.703125 -22.921875 L 40.703125 -38.46875 L 56.84375 -38.46875 Z M 56.84375 0 "/></g></g></g><g fill="#ffffff" fill-opacity="1"><g transform="translate(220.281638, 126.57738)"><g><path d="M 61.375 0 L 42.171875 0 L 20.421875 -26.03125 L 20.421875 0 L 4.296875 0 L 4.296875 -38.46875 L 23.484375 -38.46875 L 45.234375 -12.578125 L 45.234375 -38.46875 L 61.375 -38.46875 Z M 61.375 0 "/></g></g></g><g fill="#ffffff" fill-opacity="1"><g transform="translate(285.935675, 126.57738)"><g><path d="M 29.09375 0.828125 C 19.582031 0.828125 12.582031 -1.128906 8.09375 -5.046875 C 4.125 -8.503906 2.140625 -13.226562 2.140625 -19.21875 C 2.140625 -25.1875 4.125 -29.90625 8.09375 -33.375 C 12.582031 -37.289062 19.582031 -39.25 29.09375 -39.25 C 38.59375 -39.25 45.585938 -37.289062 50.078125 -33.375 C 54.046875 -29.90625 56.03125 -25.1875 56.03125 -19.21875 C 56.03125 -13.226562 54.046875 -8.503906 50.078125 -5.046875 C 45.585938 -1.128906 38.59375 0.828125 29.09375 0.828125 Z M 29.09375 -9.484375 C 32.988281 -9.484375 35.847656 -10.601562 37.671875 -12.84375 C 39.128906 -14.644531 39.859375 -16.769531 39.859375 -19.21875 C 39.859375 -21.664062 39.128906 -23.785156 37.671875 -25.578125 C 35.847656 -27.828125 32.988281 -28.953125 29.09375 -28.953125 C 25.195312 -28.953125 22.328125 -27.828125 20.484375 -25.578125 C 19.015625 -23.785156 18.28125 -21.664062 18.28125 -19.21875 C 18.28125 -16.769531 19.015625 -14.644531 20.484375 -12.84375 C 22.328125 -10.601562 25.195312 -9.484375 29.09375 -9.484375 Z M 29.09375 -9.484375 "/></g></g></g><g fill="#ffffff" fill-opacity="1"><g transform="translate(344.110138, 126.57738)"><g><path d="M 49.203125 0 L 4.296875 0 L 4.296875 -38.46875 L 20.421875 -38.46875 L 20.421875 -9.515625 L 49.203125 -9.515625 Z M 49.203125 0 "/></g></g></g><g fill="#ffffff" fill-opacity="1"><g transform="translate(392.767307, 126.57738)"><g><path d="M 29.09375 0.828125 C 19.582031 0.828125 12.582031 -1.128906 8.09375 -5.046875 C 4.125 -8.503906 2.140625 -13.226562 2.140625 -19.21875 C 2.140625 -25.1875 4.125 -29.90625 8.09375 -33.375 C 12.582031 -37.289062 19.582031 -39.25 29.09375 -39.25 C 38.59375 -39.25 45.585938 -37.289062 50.078125 -33.375 C 54.046875 -29.90625 56.03125 -25.1875 56.03125 -19.21875 C 56.03125 -13.226562 54.046875 -8.503906 50.078125 -5.046875 C 45.585938 -1.128906 38.59375 0.828125 29.09375 0.828125 Z M 29.09375 -9.484375 C 32.988281 -9.484375 35.847656 -10.601562 37.671875 -12.84375 C 39.128906 -14.644531 39.859375 -16.769531 39.859375 -19.21875 C 39.859375 -21.664062 39.128906 -23.785156 37.671875 -25.578125 C 35.847656 -27.828125 32.988281 -28.953125 29.09375 -28.953125 C 25.195312 -28.953125 22.328125 -27.828125 20.484375 -25.578125 C 19.015625 -23.785156 18.28125 -21.664062 18.28125 -19.21875 C 18.28125 -16.769531 19.015625 -14.644531 20.484375 -12.84375 C 22.328125 -10.601562 25.195312 -9.484375 29.09375 -9.484375 Z M 29.09375 -9.484375 "/></g></g></g><g fill="#ffffff" fill-opacity="1"><g transform="translate(450.94177, 126.57738)"><g><path d="M 29.09375 0.828125 C 19.582031 0.828125 12.582031 -1.128906 8.09375 -5.046875 C 4.125 -8.503906 2.140625 -13.222656 2.140625 -19.203125 C 2.140625 -25.179688 4.125 -29.90625 8.09375 -33.375 C 12.582031 -37.289062 19.582031 -39.25 29.09375 -39.25 C 34.507812 -39.25 39.007812 -38.640625 42.59375 -37.421875 C 46.1875 -36.210938 49.003906 -34.554688 51.046875 -32.453125 C 53.097656 -30.347656 54.5 -27.929688 55.25 -25.203125 L 37.984375 -25.203125 C 36.179688 -27.679688 33.21875 -28.921875 29.09375 -28.921875 C 25.195312 -28.921875 22.328125 -27.804688 20.484375 -25.578125 C 19.015625 -23.773438 18.28125 -21.648438 18.28125 -19.203125 C 18.28125 -16.742188 19.015625 -14.625 20.484375 -12.84375 C 22.328125 -10.601562 25.195312 -9.484375 29.09375 -9.484375 C 32.238281 -9.484375 34.597656 -9.753906 36.171875 -10.296875 C 37.753906 -10.847656 38.914062 -11.5625 39.65625 -12.4375 L 33.34375 -12.4375 L 33.34375 -19.203125 L 55.25 -19.203125 L 55.25 0.03125 L 48.546875 0.03125 L 47.1875 -3.703125 C 42.914062 -0.679688 36.882812 0.828125 29.09375 0.828125 Z M 29.09375 0.828125 "/></g></g></g><g fill="#ffffff" fill-opacity="1"><g transform="translate(509.411104, 126.57738)"><g><path d="M 37.53125 0 L 21.390625 0 L 21.390625 -18.234375 L 0.40625 -38.46875 L 18.28125 -38.46875 L 29.46875 -26.96875 L 40.609375 -38.46875 L 58.5 -38.46875 L 37.53125 -18.234375 Z M 37.53125 0 "/></g></g></g><g fill="#ffffff" fill-opacity="1"><g transform="translate(568.309419, 126.57738)"><g/></g></g><g fill="#ffffff" fill-opacity="1"><g transform="translate(581.928141, 126.57738)"><g><path d="M 20.421875 0 L 4.296875 0 L 4.296875 -38.46875 L 48.5 -38.46875 L 48.5 -28.953125 L 20.421875 -28.953125 L 20.421875 -22.921875 L 44.15625 -22.921875 L 44.15625 -15.515625 L 20.421875 -15.515625 Z M 20.421875 0 "/></g></g></g><g fill="#ffffff" fill-opacity="1"><g transform="translate(630.42439, 126.57738)"><g><path d="M 29.09375 0.828125 C 19.582031 0.828125 12.582031 -1.128906 8.09375 -5.046875 C 4.125 -8.503906 2.140625 -13.226562 2.140625 -19.21875 C 2.140625 -25.1875 4.125 -29.90625 8.09375 -33.375 C 12.582031 -37.289062 19.582031 -39.25 29.09375 -39.25 C 38.59375 -39.25 45.585938 -37.289062 50.078125 -33.375 C 54.046875 -29.90625 56.03125 -25.1875 56.03125 -19.21875 C 56.03125 -13.226562 54.046875 -8.503906 50.078125 -5.046875 C 45.585938 -1.128906 38.59375 0.828125 29.09375 0.828125 Z M 29.09375 -9.484375 C 32.988281 -9.484375 35.847656 -10.601562 37.671875 -12.84375 C 39.128906 -14.644531 39.859375 -16.769531 39.859375 -19.21875 C 39.859375 -21.664062 39.128906 -23.785156 37.671875 -25.578125 C 35.847656 -27.828125 32.988281 -28.953125 29.09375 -28.953125 C 25.195312 -28.953125 22.328125 -27.828125 20.484375 -25.578125 C 19.015625 -23.785156 18.28125 -21.664062 18.28125 -19.21875 C 18.28125 -16.769531 19.015625 -14.644531 20.484375 -12.84375 C 22.328125 -10.601562 25.195312 -9.484375 29.09375 -9.484375 Z M 29.09375 -9.484375 "/></g></g></g><g fill="#ffffff" fill-opacity="1"><g transform="translate(688.598807, 126.57738)"><g><path d="M 56.8125 0 L 41.5625 0 C 40.863281 -0.96875 40.367188 -2.203125 40.078125 -3.703125 C 39.828125 -4.859375 39.453125 -5.992188 38.953125 -7.109375 C 38.453125 -8.234375 37.585938 -9.164062 36.359375 -9.90625 C 35.140625 -10.644531 33.320312 -11.039062 30.90625 -11.09375 L 20.421875 -11.09375 L 20.421875 0 L 4.296875 0 L 4.296875 -38.46875 L 30.53125 -38.46875 C 36.8125 -38.46875 41.875 -38 45.71875 -37.0625 C 49.570312 -36.125 52.382812 -34.648438 54.15625 -32.640625 C 55.925781 -30.628906 56.8125 -28.003906 56.8125 -24.765625 C 56.8125 -22.066406 56.195312 -19.796875 54.96875 -17.953125 C 53.75 -16.117188 51.816406 -14.664062 49.171875 -13.59375 C 51.722656 -12.539062 53.378906 -11.273438 54.140625 -9.796875 C 54.898438 -8.328125 55.367188 -6.707031 55.546875 -4.9375 C 55.722656 -3.363281 56.144531 -1.71875 56.8125 0 Z M 20.421875 -20.59375 L 29.65625 -20.609375 C 32.226562 -20.609375 34.253906 -20.722656 35.734375 -20.953125 C 37.222656 -21.191406 38.316406 -21.507812 39.015625 -21.90625 C 39.722656 -22.3125 40.175781 -22.757812 40.375 -23.25 C 40.570312 -23.75 40.671875 -24.253906 40.671875 -24.765625 C 40.671875 -25.285156 40.570312 -25.796875 40.375 -26.296875 C 40.175781 -26.796875 39.722656 -27.242188 39.015625 -27.640625 C 38.316406 -28.046875 37.222656 -28.363281 35.734375 -28.59375 C 34.253906 -28.832031 32.226562 -28.953125 29.65625 -28.953125 L 20.421875 -28.953125 Z M 20.421875 -20.59375 "/></g></g></g><g fill="#ffffff" fill-opacity="1"><g transform="translate(747.55074, 126.57738)"><g><path d="M 27.046875 0.828125 C 17.660156 0.828125 11.054688 -1.117188 7.234375 -5.015625 C 4.015625 -8.285156 2.40625 -13.015625 2.40625 -19.203125 L 2.40625 -38.4375 L 18.546875 -38.4375 L 18.546875 -19.203125 C 18.546875 -16.515625 19.003906 -14.394531 19.921875 -12.84375 C 21.222656 -10.601562 23.597656 -9.484375 27.046875 -9.484375 C 30.535156 -9.484375 32.921875 -10.601562 34.203125 -12.84375 C 35.117188 -14.445312 35.578125 -16.566406 35.578125 -19.203125 L 35.578125 -38.4375 L 51.71875 -38.4375 L 51.71875 -18.984375 C 51.71875 -12.941406 50.117188 -8.285156 46.921875 -5.015625 C 43.078125 -1.117188 36.453125 0.828125 27.046875 0.828125 Z M 27.046875 0.828125 "/></g></g></g><g fill="#ffffff" fill-opacity="1"><g transform="translate(801.677141, 126.57738)"><g><path d="M 77.421875 0 L 61.28125 0 L 61.28125 -24.53125 L 46.859375 0 L 34.828125 0 L 20.421875 -24.53125 L 20.421875 0 L 4.296875 0 L 4.296875 -38.46875 L 23.453125 -38.46875 L 40.859375 -10.984375 L 58.234375 -38.46875 L 77.421875 -38.46875 Z M 77.421875 0 "/></g></g></g></svg>